<?xml version="1.0" encoding="UTF-8"?>
<svg version="1.1" xmlns="http://www.w3.org/2000/svg" width="1254" height="1254">
<path d="M0 0 C413.82 0 827.64 0 1254 0 C1254 413.82 1254 827.64 1254 1254 C840.18 1254 426.36 1254 0 1254 C0 840.18 0 426.36 0 0 Z " fill="#0D694B" transform="translate(0,0)"/>
<path d="M0 0 C413.82 0 827.64 0 1254 0 C1254 413.82 1254 827.64 1254 1254 C840.18 1254 426.36 1254 0 1254 C0 840.18 0 426.36 0 0 Z M336.75 63.375 C335.55165527 63.59776611 334.35331055 63.82053223 333.11865234 64.05004883 C329.74290794 64.6861678 326.3710579 65.33956309 323 66 C321.80262207 66.22743896 321.80262207 66.22743896 320.58105469 66.45947266 C299.1641375 70.59967614 277.55671727 78.44165443 258 88 C257.3503125 88.31114746 256.700625 88.62229492 256.03125 88.94287109 C251.30741289 91.20754796 246.64154884 93.57145292 242 96 C241.20271484 96.41652832 240.40542969 96.83305664 239.58398438 97.26220703 C229.17403776 102.74165352 219.28120183 108.48982549 209.89453125 115.58544922 C207.74214264 117.19252906 205.56078412 118.7550682 203.375 120.31640625 C194.67128312 126.56749366 186.4347831 132.98536938 178.703125 140.41015625 C176.53989181 142.48273371 174.35166174 144.44652551 172.0625 146.375 C163.08131524 154.15232382 154.56093803 162.83963277 147 172 C146.319375 172.8146875 145.63875 173.629375 144.9375 174.46875 C142.60007611 177.2931372 140.29574455 180.14164699 138 183 C137.21625 183.96550781 136.4325 184.93101562 135.625 185.92578125 C117.54635665 208.72689073 102.60308661 235.32644287 92.37890625 262.5234375 C91.32497249 265.18066427 90.20937042 267.75228432 89.01953125 270.34765625 C87.01216251 274.82878543 85.49898288 279.35301195 84.125 284.0625 C83.87379395 284.91610107 83.62258789 285.76970215 83.36376953 286.64916992 C79.16010893 301.15036206 75.42069036 315.7591832 72.75 330.625 C72.59901855 331.44460205 72.44803711 332.2642041 72.29248047 333.10864258 C69.32140534 350.63865577 68.70333913 368.3340155 68.74603271 386.07345581 C68.74372144 388.20373647 68.74054048 390.33401633 68.73657823 392.46429455 C68.72831304 398.25148838 68.73231738 404.03861533 68.73855066 409.82580924 C68.74310848 416.09315656 68.73607497 422.36049303 68.73059082 428.62783813 C68.72224082 440.17375261 68.72292283 451.71964033 68.72841376 463.26555544 C68.73346312 473.93660265 68.73474982 484.60764217 68.73236847 495.27869034 C68.7322157 495.98905001 68.73206293 496.69940968 68.73190553 497.43129541 C68.73128276 500.31556153 68.73064595 503.19982765 68.729986 506.08409376 C68.7238801 533.09250582 68.72939544 560.10090453 68.7401798 587.10931453 C68.74966759 611.05253846 68.74882207 634.9957411 68.73925781 658.93896484 C68.72852469 685.89785276 68.72431533 712.85672888 68.73048234 739.81561863 C68.73112368 742.6949718 68.73174937 745.57432496 68.73236847 748.45367813 C68.73252662 749.16254262 68.73268478 749.87140711 68.73284773 750.60175234 C68.73511305 761.25911088 68.73248013 771.91646085 68.72740936 782.57381821 C68.72166555 794.70551302 68.72336447 806.83717637 68.73397085 818.96886955 C68.73919738 825.14907335 68.74133631 831.32923416 68.73467255 837.50943756 C68.72864772 843.18324216 68.73209414 848.85696455 68.74262765 854.53076185 C68.74483435 856.56685613 68.74378816 858.60295758 68.73887607 860.63904713 C68.6942252 880.71048038 69.92338699 900.6334286 73.6875 920.375 C73.81527832 921.06013672 73.94305664 921.74527344 74.07470703 922.45117188 C78.17363087 944.35903963 83.52227928 966.68667646 93.04296875 986.9453125 C93.86443657 988.70895361 94.63297004 990.49708083 95.390625 992.2890625 C97.93196288 998.24332479 100.9227329 1003.98224176 103.85986328 1009.74804688 C104.98258019 1011.96559308 106.08342958 1014.19307298 107.18359375 1016.421875 C116.39381185 1034.78691139 127.97933778 1052.11000988 141 1068 C141.62237549 1068.76449463 141.62237549 1068.76449463 142.25732422 1069.54443359 C154.3394324 1084.32858173 167.42633739 1098.6429609 182 1111 C182.86109375 1111.73863281 183.7221875 1112.47726562 184.609375 1113.23828125 C215.56304371 1139.46524109 250.82540478 1159.36255592 289 1173 C289.74878418 1173.27054199 290.49756836 1173.54108398 291.26904297 1173.81982422 C314.18232435 1181.97101861 338.73420526 1186.62657035 362.91798067 1188.73155141 C364.8441219 1188.89932125 366.76959016 1189.07525032 368.69384718 1189.26340365 C378.95010851 1190.18401282 389.17654614 1190.14562657 399.46398926 1190.14044189 C401.52931603 1190.14302957 403.59464231 1190.14604384 405.6599679 1190.1494453 C411.30960268 1190.15747165 416.95922473 1190.15930242 422.60886455 1190.16004276 C428.71286401 1190.16190102 434.81685698 1190.16945233 440.92085266 1190.17617798 C454.95334309 1190.19043821 468.98583039 1190.19628447 483.01832624 1190.20086992 C489.96522136 1190.20321151 496.91211566 1190.20681482 503.85901014 1190.2105653 C527.67744692 1190.22339809 551.49588326 1190.23411613 575.31432343 1190.2375679 C576.80771392 1190.23778953 578.30110441 1190.23801131 579.7944949 1190.23823325 C581.29132845 1190.23845389 582.788162 1190.23867437 584.28499556 1190.2388947 C587.28749053 1190.23933723 590.2899855 1190.23978435 593.29248047 1190.24023438 C594.03691681 1190.24034377 594.78135315 1190.24045316 595.54834817 1190.24056586 C619.65518896 1190.2441918 643.76199959 1190.26009572 667.86882884 1190.28342474 C693.40474473 1190.30809115 718.94064342 1190.32174394 744.47657156 1190.32293582 C747.28678481 1190.32310725 750.09699806 1190.32332267 752.9072113 1190.32357025 C753.94500868 1190.3236539 753.94500868 1190.3236539 755.00377167 1190.32373925 C766.07816522 1190.32488395 777.15252752 1190.3358563 788.22691056 1190.35045731 C799.38645997 1190.36491465 810.5459782 1190.36775787 821.7055366 1190.36001733 C827.73645213 1190.3561377 833.76726384 1190.35690724 839.79816628 1190.37107468 C882.11249424 1190.46461085 921.20457782 1187.17052444 962 1175 C963.32136963 1174.61763184 963.32136963 1174.61763184 964.66943359 1174.22753906 C969.78736464 1172.73363549 974.69366604 1171.02744351 979.625 1169 C980.83414063 1168.505 982.04328125 1168.01 983.2890625 1167.5 C983.89451904 1167.25169434 984.49997559 1167.00338867 985.1237793 1166.74755859 C987.06853749 1165.97269203 989.02865729 1165.25419075 990.99609375 1164.5390625 C994.94849581 1163.06693594 998.68358984 1161.29129821 1002.4375 1159.375 C1003.46230469 1158.85558838 1003.46230469 1158.85558838 1004.5078125 1158.32568359 C1006.67488447 1157.22290448 1008.8376408 1156.11198728 1011 1155 C1011.70398926 1154.64099609 1012.40797852 1154.28199219 1013.13330078 1153.91210938 C1032.74446751 1143.88752035 1051.03202225 1132.07036924 1068 1118 C1068.98226562 1117.19175781 1069.96453125 1116.38351562 1070.9765625 1115.55078125 C1087.90038957 1101.50932609 1103.40168054 1086.30695203 1117 1069 C1117.49113281 1068.37609375 1117.98226563 1067.7521875 1118.48828125 1067.109375 C1142.82695363 1036.07904817 1162.16797802 1001.27233163 1174.5625 963.75 C1174.95453613 962.56631836 1175.34657227 961.38263672 1175.75048828 960.16308594 C1178.58193484 951.50650947 1181.06518993 942.90012632 1183 934 C1183.26167969 932.89527344 1183.52335937 931.79054688 1183.79296875 930.65234375 C1185.62778879 922.39099665 1186.67189141 914.09038077 1187.625 905.6875 C1187.74818604 904.60944092 1187.87137207 903.53138184 1187.99829102 902.4206543 C1189.78303003 885.83010522 1190.14715284 869.29576084 1190.12698364 852.62620544 C1190.1281384 850.52326257 1190.12972829 848.42031989 1190.13171089 846.31737763 C1190.13585549 840.58745977 1190.1338357 834.85755873 1190.13072467 829.12764084 C1190.12845084 822.92920899 1190.13196001 816.73077992 1190.13470459 810.53234863 C1190.13888421 799.10834221 1190.1385363 787.68434321 1190.13579312 776.26033683 C1190.13327111 765.70473166 1190.13262387 755.14912843 1190.13381577 744.59352303 C1190.13389215 743.89157695 1190.13396854 743.18963087 1190.13404724 742.4664137 C1190.13435861 739.61653228 1190.13467701 736.76665085 1190.135007 733.91676943 C1190.13806142 707.21922854 1190.13529975 680.52169102 1190.1299101 653.82415064 C1190.12516449 630.13675292 1190.12559009 606.44936057 1190.13037109 582.76196289 C1190.13573261 556.10971194 1190.13784527 529.45746397 1190.13475883 502.80521256 C1190.13443814 499.96102878 1190.1341253 497.11684499 1190.13381577 494.27266121 C1190.13373669 493.57242081 1190.13365761 492.87218042 1190.13357614 492.15072061 C1190.13244156 481.60446658 1190.13376352 471.05821471 1190.13629532 460.51196098 C1190.1391614 448.51392538 1190.13832949 436.5158975 1190.13301457 424.51786213 C1190.13039399 418.40134751 1190.12934459 412.28484377 1190.13266373 406.16832924 C1190.13566058 400.56075203 1190.13397783 394.95319573 1190.12868617 389.3456204 C1190.12757639 387.32568112 1190.12812091 385.30574005 1190.13056196 383.28580194 C1190.1489479 366.79668979 1189.69400925 350.56731386 1187.0625 334.25 C1186.89298828 333.12851562 1186.72347656 332.00703125 1186.54882812 330.8515625 C1185.77586755 325.92577574 1184.91224291 321.61544372 1183 317 C1182.58768141 314.77743337 1182.21799749 312.5468146 1181.875 310.3125 C1180.54165471 302.48099038 1178.3346672 294.96081883 1176 287.375 C1175.48348877 285.68564331 1175.48348877 285.68564331 1174.95654297 283.9621582 C1173.31332526 278.71952999 1171.5676435 273.8713903 1169 269 C1167.69619627 265.46621489 1166.48973375 261.90719481 1165.28125 258.33984375 C1164.10667005 255.27805761 1162.71679746 252.77717237 1161 250 C1160.0128 247.65248504 1159.13624412 245.28059212 1158.2578125 242.890625 C1156.81896764 239.58396291 1155.1107023 236.50621662 1153.33789062 233.36865234 C1152.07107177 231.12582817 1150.83371077 228.86959588 1149.60546875 226.60546875 C1137.22696891 203.92295063 1122.05757017 183.46549326 1104.45019531 164.56787109 C1102.97182413 162.96953781 1101.51155591 161.35622257 1100.0546875 159.73828125 C1090.18942583 148.82318001 1079.55766792 139.12293077 1068 130 C1067.1018457 129.28505371 1067.1018457 129.28505371 1066.18554688 128.55566406 C1045.6403137 112.25726837 1023.58359515 98.63859765 999.73828125 87.734375 C996.82780217 86.4011553 994.00569636 84.95764795 991.1875 83.4375 C950.42311977 63.02116886 901.50345855 58.8275929 856.64675903 58.86628723 C854.55817813 58.86441434 852.46959758 58.86211175 850.38101757 58.85942191 C844.69528773 58.85335692 839.00957271 58.85343117 833.32384038 58.85461628 C827.17102032 58.85482164 821.01820485 58.84928889 814.86538696 58.84455872 C802.8325511 58.83628152 790.79972147 58.83349222 778.76688351 58.83294634 C768.98157027 58.83248533 759.19625861 58.83041939 749.41094589 58.82724571 C746.5858707 58.82634807 743.76079552 58.82545825 740.93572032 58.82457083 C740.2332473 58.82434979 739.53077427 58.82412874 738.80701418 58.82390099 C719.07298847 58.81775482 699.33896331 58.81379963 679.6049366 58.81424427 C678.8622932 58.81425985 678.1196498 58.81427543 677.35450205 58.81429148 C673.59116104 58.81437458 669.82782002 58.81447362 666.06447901 58.81457619 C665.31717114 58.81459613 664.56986327 58.81461608 663.79990971 58.81463663 C662.2886757 58.81467706 660.7774417 58.81471886 659.2662077 58.81476202 C635.75314921 58.81537479 612.24010514 58.80786455 588.72705078 58.79418945 C562.26263139 58.77880391 535.79822148 58.77022465 509.33379734 58.77115268 C506.50809344 58.7712273 503.68238954 58.77127601 500.85668564 58.77130699 C500.16101089 58.77131865 499.46533613 58.7713303 498.74858033 58.77134231 C487.5929794 58.77137298 476.43739109 58.76500965 465.28179391 58.75637473 C454.05814554 58.74786716 442.83451524 58.74710304 431.61086382 58.75348405 C425.54041486 58.75673846 419.47001124 58.75684501 413.39956665 58.7481308 C407.82942527 58.74021735 402.25936483 58.7417462 396.6892253 58.75041493 C394.68741363 58.75193928 392.68559577 58.75017457 390.68379141 58.74455485 C372.50703978 58.69695607 354.62742392 59.99780215 336.75 63.375 Z " fill="#FDFDFD" transform="translate(0,0)"/>
<path d="M0 0 C38.94 0 77.88 0 118 0 C118 127.38 118 254.76 118 386 C183.01 386 248.02 386 315 386 C315 416.03 315 446.06 315 477 C211.05 477 107.1 477 0 477 C0 319.59 0 162.18 0 0 Z " fill="#FBFCFC" transform="translate(471,364)"/>
<path d="M0 0 C0 0.99 0 1.98 0 3 C-1.90607285 4.06092734 -3.82532746 5.09820101 -5.75 6.125 C-6.81734375 6.70507812 -7.8846875 7.28515625 -8.984375 7.8828125 C-12 9 -12 9 -14.390625 8.1796875 C-15.18726563 7.59574219 -15.18726563 7.59574219 -16 7 C-13.71070947 5.82845707 -11.41881638 4.66261926 -9.125 3.5 C-8.47402344 3.16613281 -7.82304687 2.83226563 -7.15234375 2.48828125 C-2.2265625 0 -2.2265625 0 0 0 Z " fill="#277A61" transform="translate(258,89)"/>
<path d="M0 0 C0 0.33 0 0.66 0 1 C-1.65 1 -3.3 1 -5 1 C-5 1.66 -5 2.32 -5 3 C-8.78710209 3.65862645 -12.16513773 4.01739296 -16 3.9375 C-18.92528651 3.78410712 -18.92528651 3.78410712 -21 5 C-22.67654729 4.72057545 -24.34608154 4.39171753 -26 4 C-26 3.67 -26 3.34 -26 3 C-23.16793882 2.49168133 -20.33470266 1.99318495 -17.5 1.5 C-16.31277344 1.28537109 -16.31277344 1.28537109 -15.1015625 1.06640625 C-9.9876082 0.18613543 -5.18887598 -0.1428131 0 0 Z " fill="#2A795F" transform="translate(359,61)"/>
<path d="M0 0 C-1.10789408 3.32368224 -1.48436217 3.61563093 -4.375 5.25 C-5.28378906 5.78367187 -5.28378906 5.78367187 -6.2109375 6.328125 C-8 7 -8 7 -11 6 C-9.54550599 4.9944239 -8.08627557 3.99569565 -6.625 3 C-5.40683594 2.1646875 -5.40683594 2.1646875 -4.1640625 1.3125 C-2 0 -2 0 0 0 Z " fill="#2A7B63" transform="translate(226,106)"/>
<path d="M0 0 C4.46839215 -0.21278058 7.82262526 0.40861915 12 2 C12 2.99 12 3.98 12 5 C10.56068883 4.54738642 9.12361001 4.08767021 7.6875 3.625 C6.88699219 3.36976562 6.08648437 3.11453125 5.26171875 2.8515625 C3 2 3 2 0 0 Z " fill="#347C68" transform="translate(261,1161)"/>
<path d="M0 0 C0.66 0.33 1.32 0.66 2 1 C-0.31 3.64 -2.62 6.28 -5 9 C-5.66 8.34 -6.32 7.68 -7 7 C-4.69 4.69 -2.38 2.38 0 0 Z " fill="#20755D" transform="translate(183,136)"/>
<path d="M0 0 C1.26457031 0.12761719 2.52914062 0.25523438 3.83203125 0.38671875 C5.74048828 0.56654297 5.74048828 0.56654297 7.6875 0.75 C8.66332031 0.85699219 9.63914062 0.96398438 10.64453125 1.07421875 C10.64453125 1.40421875 10.64453125 1.73421875 10.64453125 2.07421875 C2.22953125 2.56921875 2.22953125 2.56921875 -6.35546875 3.07421875 C-3.35546875 0.07421875 -3.35546875 0.07421875 0 0 Z " fill="#35806B" transform="translate(893.35546875,1185.92578125)"/>
<path d="M0 0 C1.32 0 2.64 0 4 0 C6.25 3 6.25 3 8 6 C5 6 5 6 3.61328125 4.6875 C2.40885417 3.125 1.20442708 1.5625 0 0 Z " fill="#287A62" transform="translate(157,1086)"/>
<path d="M0 0 C0.33 0.66 0.66 1.32 1 2 C0.06421005 4.35981813 -0.93347808 6.69631264 -2 9 C-2.66 8.34 -3.32 7.68 -4 7 C-3.39816251 4.97954558 -2.72693904 2.97888961 -2 1 C-1.34 0.67 -0.68 0.34 0 0 Z " fill="#27765F" transform="translate(1171,970)"/>
<path d="M0 0 C0.66 0 1.32 0 2 0 C1.67 2.31 1.34 4.62 1 7 C0.01 6.67 -0.98 6.34 -2 6 C-1.34 4.02 -0.68 2.04 0 0 Z " fill="#297B65" transform="translate(91,266)"/>
<path d="M0 0 C0.6875 1.6875 0.6875 1.6875 1 4 C-0.3125 6.75 -0.3125 6.75 -2 9 C-2.66 9 -3.32 9 -4 9 C-2.94124926 5.59687262 -1.99097846 2.98646769 0 0 Z " fill="#2C7A65" transform="translate(113,220)"/>
</svg>
