<svg width="1600" height="420" viewBox="0 0 1600 420" fill="none" xmlns="http://www.w3.org/2000/svg">
  <defs>
    <linearGradient id="baseGradient" x1="40" y1="60" x2="1520" y2="180" gradientUnits="userSpaceOnUse">
      <stop offset="0" stop-color="#0B6E4F"/>
      <stop offset="0.34" stop-color="#15803D"/>
      <stop offset="0.72" stop-color="#84CC16"/>
      <stop offset="1" stop-color="#FDE68A"/>
    </linearGradient>
    <linearGradient id="panelOne" x1="620" y1="20" x2="920" y2="240" gradientUnits="userSpaceOnUse">
      <stop stop-color="#34D399" stop-opacity="0.24"/>
      <stop offset="1" stop-color="#D9F99D" stop-opacity="0.1"/>
    </linearGradient>
    <linearGradient id="panelTwo" x1="980" y1="-10" x2="1360" y2="280" gradientUnits="userSpaceOnUse">
      <stop stop-color="#A3E635" stop-opacity="0.28"/>
      <stop offset="1" stop-color="#FEF08A" stop-opacity="0.12"/>
    </linearGradient>
    <radialGradient id="glowLeft" cx="0" cy="0" r="1" gradientUnits="userSpaceOnUse" gradientTransform="translate(200 150) rotate(9) scale(360 260)">
      <stop stop-color="#4ADE80" stop-opacity="0.34"/>
      <stop offset="1" stop-color="#4ADE80" stop-opacity="0"/>
    </radialGradient>
    <radialGradient id="glowRight" cx="0" cy="0" r="1" gradientUnits="userSpaceOnUse" gradientTransform="translate(1360 120) rotate(165) scale(460 280)">
      <stop stop-color="#FDE047" stop-opacity="0.3"/>
      <stop offset="1" stop-color="#FDE047" stop-opacity="0"/>
    </radialGradient>
    <filter id="blurGlow" x="-80" y="-80" width="1760" height="580" filterUnits="userSpaceOnUse" color-interpolation-filters="sRGB">
      <feGaussianBlur stdDeviation="30"/>
    </filter>
  </defs>

  <rect width="1600" height="420" rx="0" fill="url(#baseGradient)"/>

  <g opacity="0.85">
    <path d="M740 0H1110L980 240H610L740 0Z" fill="url(#panelOne)"/>
    <path d="M1130 0H1600V280H930L1130 0Z" fill="url(#panelTwo)"/>
    <path d="M1220 0H1600V150L1430 250H1080L1220 0Z" fill="rgba(255,255,255,0.06)"/>
  </g>

  <g filter="url(#blurGlow)">
    <ellipse cx="210" cy="150" rx="280" ry="180" fill="url(#glowLeft)"/>
    <ellipse cx="1390" cy="120" rx="320" ry="190" fill="url(#glowRight)"/>
  </g>

  <g opacity="0.35" fill="#D9F99D">
    <circle cx="875" cy="74" r="3"/>
    <circle cx="910" cy="74" r="3"/>
    <circle cx="945" cy="74" r="3"/>
    <circle cx="980" cy="74" r="3"/>
    <circle cx="1015" cy="74" r="3"/>
    <circle cx="840" cy="108" r="3"/>
    <circle cx="875" cy="108" r="3"/>
    <circle cx="910" cy="108" r="3"/>
    <circle cx="945" cy="108" r="3"/>
    <circle cx="980" cy="108" r="3"/>
    <circle cx="1015" cy="108" r="3"/>
    <circle cx="1050" cy="108" r="3"/>
    <circle cx="805" cy="142" r="3"/>
    <circle cx="840" cy="142" r="3"/>
    <circle cx="875" cy="142" r="3"/>
    <circle cx="910" cy="142" r="3"/>
    <circle cx="945" cy="142" r="3"/>
    <circle cx="980" cy="142" r="3"/>
    <circle cx="1015" cy="142" r="3"/>
    <circle cx="1050" cy="142" r="3"/>
    <circle cx="1085" cy="142" r="3"/>
    <circle cx="770" cy="176" r="3"/>
    <circle cx="805" cy="176" r="3"/>
    <circle cx="840" cy="176" r="3"/>
    <circle cx="875" cy="176" r="3"/>
    <circle cx="910" cy="176" r="3"/>
    <circle cx="945" cy="176" r="3"/>
    <circle cx="980" cy="176" r="3"/>
    <circle cx="1015" cy="176" r="3"/>
    <circle cx="1050" cy="176" r="3"/>
    <circle cx="1085" cy="176" r="3"/>
    <circle cx="1120" cy="176" r="3"/>
  </g>

  <g opacity="0.22" stroke="#ECFCCB" stroke-width="14">
    <path d="M1430 390C1460 346 1525 322 1588 328" stroke-linecap="round"/>
    <path d="M1280 390C1315 332 1400 304 1486 312" stroke-linecap="round"/>
  </g>
</svg>
